<?xml version="1.0" standalone="no"?><!DOCTYPE svg PUBLIC "-//W3C//DTD SVG 1.1//EN" "http://www.w3.org/Graphics/SVG/1.1/DTD/svg11.dtd"><svg t="1685678653905" class="icon" viewBox="0 0 1024 1024" version="1.1" xmlns="http://www.w3.org/2000/svg" p-id="1515" xmlns:xlink="http://www.w3.org/1999/xlink" width="200" height="200"><path d="M250.7 250.7h522.7v448H848V213.3c0-20.6-16.7-37.3-37.3-37.3h-560v-74.7c0-20.6-16.7-37.3-37.3-37.3S176 80.7 176 101.3V176h-74.7C80.7 176 64 192.7 64 213.3s16.7 37.3 37.3 37.3h149.4z" fill="#333333" p-id="1516"></path><path d="M922.7 773.3h-672v-448H176v485.3c0 20.6 16.7 37.3 37.3 37.3h560v74.7c0 20.6 16.7 37.3 37.3 37.3s37.3-16.7 37.3-37.3V848h74.7c20.6 0 37.3-16.7 37.3-37.3s-16.6-37.4-37.2-37.4z" fill="#333333" p-id="1517"></path></svg>